<svg width="32" height="23" viewBox="0 0 32 23" xmlns="http://www.w3.org/2000/svg">
<path d="M29.5312 4.375H2.1875C0.984375 4.375 0 3.39062 0 2.1875C0 0.984375 0.984375 0 2.1875 0H29.5312C30.7344 0 31.7188 0.984375 31.7188 2.1875C31.7188 3.39062 30.7344 4.375 29.5312 4.375Z"/>
<path d="M29.5312 22.9906H2.1875C0.984375 22.9906 0 22.0062 0 20.8031C0 19.6 0.984375 18.6156 2.1875 18.6156H29.5312C30.7344 18.6156 31.7188 19.6 31.7188 20.8031C31.7188 22.0062 30.7344 22.9906 29.5312 22.9906Z"/>
<path d="M29.5312 13.6829H2.1875C0.984375 13.6829 0 12.6985 0 11.4954C0 10.2922 0.984375 9.30786 2.1875 9.30786H29.5312C30.7344 9.30786 31.7188 10.2922 31.7188 11.4954C31.7188 12.6985 30.7344 13.6829 29.5312 13.6829Z"/>
</svg>
